<svg width="225" height="65" viewBox="0 0 225 65" fill="none" xmlns="http://www.w3.org/2000/svg">
<path d="M202.865 54.5592C204.208 54.5592 205.306 54.4827 206.16 54.3298C207.045 54.1769 207.731 53.9169 208.219 53.5498C208.738 53.2133 209.089 52.7545 209.272 52.1733C209.486 51.5922 209.592 50.8733 209.592 50.0169V44.8322C209.592 43.8227 209.684 42.9204 209.867 42.1251C210.081 41.3298 210.431 40.6263 210.919 40.0145C211.408 39.4028 212.018 38.8828 212.75 38.4545C213.482 37.9957 214.397 37.598 215.496 37.2616C214.397 36.9557 213.482 36.5733 212.75 36.1145C212.018 35.6251 211.408 35.0592 210.919 34.4169C210.431 33.7745 210.081 33.0098 209.867 32.1228C209.684 31.2357 209.592 30.211 209.592 29.0486V24.8733C209.592 24.0169 209.486 23.298 209.272 22.7169C209.058 22.1357 208.692 21.6616 208.174 21.2945C207.686 20.9275 206.999 20.6675 206.114 20.5145C205.26 20.3616 204.177 20.2851 202.865 20.2851V16.5686C203.14 16.538 203.46 16.5227 203.826 16.5227C204.192 16.4922 204.619 16.4769 205.108 16.4769C208.311 16.4769 210.675 17.1345 212.201 18.4498C213.757 19.7651 214.535 21.8604 214.535 24.7357V28.9569C214.535 29.8133 214.657 30.578 214.901 31.251C215.145 31.9239 215.542 32.5204 216.091 33.0404C216.67 33.5604 217.418 33.9886 218.333 34.3251C219.248 34.6616 220.362 34.9216 221.674 35.1051V39.1886C220.362 39.3416 219.248 39.6016 218.333 39.9686C217.418 40.3357 216.67 40.7639 216.091 41.2533C215.542 41.7428 215.145 42.3239 214.901 42.9969C214.657 43.6698 214.535 44.4192 214.535 45.2451V50.4757C214.535 53.2898 213.787 55.3086 212.292 56.5322C210.797 57.7557 208.403 58.3675 205.108 58.3675C204.619 58.3675 204.192 58.3522 203.826 58.3216C203.46 58.3216 203.14 58.291 202.865 58.2298V54.5592Z" fill="#F3F3F3"/>
<path d="M35.6268 44.7404C35.0777 44.9545 34.4065 45.1381 33.6133 45.291C32.8353 45.4439 32.0497 45.5204 31.2565 45.5204C30.2497 45.5204 29.3802 45.4133 28.648 45.1992C27.9158 44.9698 27.3056 44.5569 26.8175 43.9604C26.3294 43.3639 25.9633 42.5381 25.7192 41.4828C25.4904 40.4122 25.376 39.0357 25.376 37.3533C25.376 35.671 25.5133 34.2945 25.7878 33.2239C26.0777 32.138 26.4895 31.2892 27.0234 30.6775C27.5726 30.0657 28.2285 29.6451 28.9912 29.4157C29.7539 29.171 30.6158 29.0486 31.5768 29.0486C32.248 29.0486 32.8963 29.0945 33.5217 29.1863C34.1624 29.278 34.765 29.408 35.3294 29.5763L35.1234 30.9757C34.5285 30.838 33.9412 30.731 33.3616 30.6545C32.7972 30.5628 32.2175 30.5169 31.6226 30.5169C30.9209 30.5169 30.2955 30.601 29.7463 30.7692C29.1972 30.9375 28.7319 31.2663 28.3506 31.7557C27.9692 32.2451 27.6717 32.9333 27.4582 33.8204C27.2599 34.6922 27.1607 35.8392 27.1607 37.2616C27.1607 38.6992 27.2522 39.8692 27.4353 40.7716C27.6183 41.6586 27.8853 42.3469 28.2361 42.8363C28.587 43.3257 29.0141 43.6545 29.5175 43.8228C30.0361 43.9757 30.6387 44.0522 31.3251 44.0522C31.859 44.0522 32.3319 44.0139 32.7438 43.9375C33.1709 43.8457 33.537 43.7386 33.8421 43.6163V37.7433H30.5243V36.321H35.6268V44.7404ZM47.6351 44.9239C47.0554 45.0922 46.4376 45.2222 45.7817 45.3139C45.141 45.421 44.4317 45.4745 43.6537 45.4745C42.8758 45.4745 42.1664 45.3981 41.5258 45.2451C40.9003 45.0922 40.3664 44.8092 39.9241 44.3963C39.4817 43.9833 39.1385 43.4022 38.8944 42.6528C38.6656 41.8881 38.5512 40.8939 38.5512 39.6704C38.5512 38.4775 38.6732 37.4986 38.9173 36.7339C39.1614 35.9692 39.5046 35.3651 39.947 34.9216C40.4046 34.4628 40.9461 34.1416 41.5715 33.958C42.197 33.7745 42.891 33.6828 43.6537 33.6828C44.3707 33.6828 45.0037 33.7669 45.5529 33.9351C46.102 34.088 46.5673 34.3633 46.9487 34.761C47.33 35.1433 47.6122 35.671 47.7953 36.3439C47.9783 37.0169 48.0698 37.8733 48.0698 38.9133C48.0698 39.0969 48.0698 39.2728 48.0698 39.441C48.0698 39.5939 48.0622 39.7775 48.047 39.9916H40.3588C40.3588 40.8786 40.4351 41.5898 40.5876 42.1251C40.7554 42.6604 40.9919 43.0733 41.297 43.3639C41.602 43.6392 41.9758 43.8228 42.4181 43.9145C42.8758 44.0063 43.402 44.0522 43.997 44.0522C44.6681 44.0522 45.2783 44.0063 45.8275 43.9145C46.3766 43.8228 46.9181 43.7081 47.452 43.5704L47.6351 44.9239ZM46.3995 38.7298C46.3995 37.9804 46.3309 37.3686 46.1936 36.8945C46.0715 36.4204 45.8885 36.0533 45.6444 35.7933C45.4003 35.518 45.1029 35.3345 44.752 35.2428C44.4012 35.1357 44.0046 35.0822 43.5622 35.0822C43.1046 35.0822 42.6775 35.1357 42.2809 35.2428C41.8995 35.3498 41.5715 35.541 41.297 35.8163C41.0224 36.0916 40.8012 36.4663 40.6334 36.9404C40.4808 37.3992 40.3893 37.9957 40.3588 38.7298H46.3995ZM55.662 35.518C56.3332 34.9522 56.9662 34.5086 57.5611 34.1875C58.1561 33.851 58.7891 33.6828 59.4603 33.6828C59.8569 33.6828 60.2154 33.721 60.5357 33.7975C60.8561 33.8586 61.1764 33.9657 61.4967 34.1186L61.1078 35.8392C60.8332 35.671 60.5357 35.541 60.2154 35.4492C59.9103 35.3575 59.5518 35.3116 59.14 35.3116C58.8806 35.3116 58.6289 35.3498 58.3849 35.4263C58.1408 35.4875 57.8815 35.5869 57.6069 35.7245C57.3476 35.8622 57.073 36.0304 56.7832 36.2292C56.4934 36.4281 56.1654 36.6651 55.7993 36.9404V43.8686H59.6434V45.2451H50.8798V43.8686H54.0145V35.3804H51.0171V34.0039H55.5247L55.662 35.518ZM63.0939 34.0039H64.4896L64.604 35.128C64.9854 34.7304 65.382 34.4092 65.7939 34.1645C66.2057 33.9045 66.6481 33.7745 67.121 33.7745C67.6244 33.7745 68.0362 33.9045 68.3566 34.1645C68.6922 34.4245 68.9362 34.761 69.0888 35.1739C69.5006 34.7763 69.9125 34.4475 70.3244 34.1875C70.7515 33.9122 71.2091 33.7745 71.6973 33.7745C71.9871 33.7745 72.2617 33.828 72.521 33.9351C72.7956 34.0422 73.032 34.2104 73.2303 34.4398C73.4439 34.6692 73.604 34.9598 73.7108 35.3116C73.8328 35.6633 73.8939 36.0992 73.8939 36.6192V45.2451H72.2235V36.9633C72.2235 36.6269 72.2006 36.3516 72.1549 36.1375C72.1091 35.908 72.0405 35.7322 71.9489 35.6098C71.8574 35.4722 71.7506 35.3804 71.6286 35.3345C71.5066 35.2733 71.3769 35.2428 71.2396 35.2428C70.965 35.2428 70.6752 35.3422 70.3701 35.541C70.0803 35.7398 69.7218 36.061 69.2947 36.5045C69.31 36.5963 69.3176 36.6804 69.3176 36.7569C69.3176 36.8333 69.3176 36.9175 69.3176 37.0092V45.2451H67.6701V36.9633C67.6701 36.6269 67.6396 36.3516 67.5786 36.1375C67.5328 35.908 67.4642 35.7322 67.3727 35.6098C67.2812 35.4722 67.1744 35.3804 67.0523 35.3345C66.9303 35.2733 66.8006 35.2428 66.6634 35.2428C66.3888 35.2428 66.1066 35.3422 65.8167 35.541C65.5269 35.7398 65.1684 36.061 64.7413 36.5045V45.2451H63.0939V34.0039ZM83.5454 37.3075C83.5454 36.6039 83.3318 36.0763 82.9047 35.7245C82.4928 35.3728 81.8445 35.1969 80.9598 35.1969C80.3953 35.1969 79.8233 35.2351 79.2437 35.3116C78.664 35.3728 78.0843 35.4722 77.5047 35.6098L77.3445 34.2563C77.9547 34.1033 78.5877 33.9886 79.2437 33.9122C79.8996 33.8204 80.5708 33.7745 81.2572 33.7745C81.9742 33.7745 82.592 33.851 83.1106 34.0039C83.6292 34.1416 84.0487 34.3557 84.3691 34.6463C84.7047 34.9369 84.9487 35.2963 85.1013 35.7245C85.2538 36.1528 85.3301 36.6498 85.3301 37.2157V45.2451H83.8428L83.7284 44.1669C83.0877 44.5186 82.4242 44.8245 81.7377 45.0845C81.0665 45.3445 80.3496 45.4745 79.5869 45.4745C78.5801 45.4745 77.7564 45.2145 77.1157 44.6945C76.475 44.1745 76.1547 43.3639 76.1547 42.2628C76.1547 41.6663 76.2462 41.1463 76.4292 40.7028C76.6275 40.2439 76.9555 39.8539 77.4131 39.5328C77.886 39.2116 78.5038 38.9745 79.2665 38.8216C80.0292 38.6533 80.975 38.5692 82.1038 38.5692H83.5454V37.3075ZM82.1725 39.831C81.303 39.831 80.586 39.8769 80.0216 39.9686C79.4725 40.0604 79.0301 40.2057 78.6945 40.4045C78.3589 40.588 78.1225 40.8251 77.9852 41.1157C77.8631 41.4063 77.8021 41.7428 77.8021 42.1251C77.8021 42.8286 77.9928 43.3333 78.3742 43.6392C78.7555 43.9451 79.2742 44.098 79.9301 44.098C80.5555 44.098 81.1428 43.9986 81.692 43.7998C82.2411 43.5857 82.8589 43.2798 83.5454 42.8822V39.831H82.1725ZM82.8818 28.0622L84.0487 29.2322L80.9826 32.1686L80.136 31.2969L82.8818 28.0622ZM89.1697 34.0039H90.6341L90.7714 35.1969C91.3816 34.7839 92.0299 34.4475 92.7163 34.1875C93.4028 33.9122 94.1121 33.7745 94.8443 33.7745C95.8968 33.7745 96.7129 34.0651 97.2926 34.6463C97.8723 35.2275 98.1621 36.1757 98.1621 37.491V45.2451H96.3773V37.7892C96.3773 36.8257 96.1867 36.1604 95.8053 35.7933C95.4392 35.4263 94.9587 35.2428 94.3638 35.2428C93.8146 35.2428 93.2502 35.3575 92.6706 35.5869C92.1062 35.8163 91.5341 36.1451 90.9545 36.5733V45.2451H89.1697V34.0039ZM101.361 29.301H106.097C107.089 29.301 107.936 29.3622 108.637 29.4845C109.354 29.6069 109.942 29.8363 110.399 30.1728C110.857 30.5092 111.192 30.968 111.406 31.5492C111.635 32.1304 111.749 32.8798 111.749 33.7975C111.749 34.7151 111.635 35.4951 111.406 36.1375C111.177 36.7645 110.819 37.2845 110.331 37.6975C109.858 38.0951 109.247 38.3857 108.5 38.5692C107.768 38.7528 106.883 38.8445 105.846 38.8445H104.13V45.2451H101.361V29.301ZM105.96 36.7339C106.997 36.7339 107.76 36.5122 108.248 36.0686C108.752 35.6251 109.003 34.9063 109.003 33.9122C109.003 33.4228 108.95 33.0175 108.843 32.6963C108.736 32.3598 108.561 32.0998 108.317 31.9163C108.073 31.7328 107.76 31.6028 107.379 31.5263C106.997 31.4498 106.547 31.4116 106.029 31.4116H104.13V36.7339H105.96ZM123.346 44.9469C122.735 45.1151 122.087 45.2451 121.401 45.3369C120.729 45.4286 119.99 45.4745 119.181 45.4745C118.327 45.4745 117.564 45.3981 116.893 45.2451C116.222 45.0922 115.657 44.8092 115.2 44.3963C114.742 43.9681 114.391 43.3792 114.147 42.6298C113.903 41.8651 113.781 40.871 113.781 39.6475C113.781 38.4698 113.911 37.491 114.17 36.711C114.429 35.931 114.796 35.3116 115.268 34.8528C115.741 34.3786 116.306 34.0498 116.962 33.8663C117.633 33.6675 118.357 33.568 119.135 33.568C119.929 33.568 120.615 33.6522 121.195 33.8204C121.774 33.9733 122.255 34.2486 122.636 34.6463C123.033 35.0286 123.323 35.5563 123.506 36.2292C123.704 36.9022 123.803 37.751 123.803 38.7757C123.803 39.0357 123.796 39.2957 123.78 39.5557C123.78 39.8004 123.765 40.0604 123.735 40.3357H116.527C116.542 40.9933 116.611 41.521 116.733 41.9186C116.87 42.3163 117.061 42.6222 117.305 42.8363C117.564 43.0504 117.892 43.1957 118.289 43.2722C118.685 43.3486 119.151 43.3869 119.685 43.3869C120.325 43.3869 120.913 43.3486 121.446 43.2722C121.996 43.1804 122.552 43.0657 123.117 42.9281L123.346 44.9469ZM121.355 38.5463C121.355 37.9651 121.301 37.4833 121.195 37.101C121.103 36.7186 120.958 36.4281 120.76 36.2292C120.562 36.0151 120.318 35.8698 120.028 35.7933C119.753 35.7016 119.433 35.6557 119.067 35.6557C118.685 35.6557 118.342 35.7016 118.037 35.7933C117.732 35.8851 117.465 36.038 117.236 36.2522C117.023 36.4663 116.855 36.7645 116.733 37.1469C116.611 37.5139 116.542 37.9804 116.527 38.5463H121.355ZM126.59 33.8892H128.833L129.016 35.0592C129.626 34.6463 130.244 34.3175 130.869 34.0728C131.495 33.8128 132.166 33.6828 132.883 33.6828C133.981 33.6828 134.812 33.981 135.377 34.5775C135.941 35.1586 136.223 36.1069 136.223 37.4222V45.2451H133.478V37.9728C133.478 37.1775 133.34 36.6345 133.066 36.3439C132.806 36.0381 132.448 35.8851 131.99 35.8851C131.578 35.8851 131.151 35.9845 130.709 36.1833C130.267 36.3669 129.809 36.6422 129.336 37.0092V45.2451H126.59V33.8892ZM127.551 30.7692C127.673 30.5245 127.818 30.2798 127.986 30.0351C128.154 29.7904 128.345 29.5763 128.558 29.3928C128.787 29.1939 129.031 29.041 129.29 28.9339C129.565 28.8116 129.862 28.7504 130.183 28.7504C130.472 28.7504 130.739 28.8116 130.983 28.9339C131.228 29.041 131.449 29.1633 131.647 29.301C131.861 29.4386 132.059 29.5686 132.242 29.691C132.425 29.798 132.616 29.8516 132.814 29.8516C133.073 29.8516 133.287 29.7522 133.455 29.5533C133.622 29.3545 133.775 29.1022 133.912 28.7963L135.239 29.7598C135.117 30.0045 134.972 30.2492 134.805 30.4939C134.637 30.7386 134.439 30.9528 134.21 31.1363C133.996 31.3198 133.752 31.4728 133.478 31.5951C133.218 31.7175 132.928 31.7786 132.608 31.7786C132.303 31.7786 132.028 31.7251 131.784 31.618C131.556 31.4957 131.334 31.3657 131.121 31.228C130.922 31.0904 130.732 30.968 130.549 30.861C130.366 30.7539 130.183 30.7004 130 30.7004C129.725 30.7004 129.504 30.7998 129.336 30.9986C129.168 31.1822 129.016 31.4269 128.878 31.7328L127.551 30.7692ZM141.848 33.8892V41.1616C141.848 41.9569 141.977 42.5075 142.237 42.8133C142.511 43.1039 142.877 43.2492 143.335 43.2492C143.747 43.2492 144.174 43.1575 144.616 42.9739C145.059 42.7751 145.516 42.4922 145.989 42.1251V33.8892H148.735V45.2451H146.493L146.31 44.0751C146.004 44.2892 145.699 44.4804 145.394 44.6486C145.089 44.8169 144.776 44.9622 144.456 45.0845C144.136 45.2069 143.808 45.2986 143.472 45.3598C143.152 45.4363 142.809 45.4745 142.443 45.4745C141.344 45.4745 140.513 45.1839 139.949 44.6028C139.384 44.0063 139.102 43.0504 139.102 41.7351V33.8892H141.848ZM151.751 33.8892H153.993L154.176 35.0592C154.786 34.6463 155.404 34.3175 156.03 34.0728C156.655 33.8128 157.326 33.6828 158.043 33.6828C159.142 33.6828 159.973 33.981 160.537 34.5775C161.102 35.1586 161.384 36.1069 161.384 37.4222V45.2451H158.638V37.9728C158.638 37.1775 158.501 36.6345 158.226 36.3439C157.967 36.0381 157.608 35.8851 157.151 35.8851C156.739 35.8851 156.312 35.9845 155.87 36.1833C155.427 36.3669 154.97 36.6422 154.497 37.0092V45.2451H151.751V33.8892ZM152.712 30.7692C152.834 30.5245 152.979 30.2798 153.147 30.0351C153.314 29.7904 153.505 29.5763 153.719 29.3928C153.947 29.1939 154.192 29.041 154.451 28.9339C154.725 28.8116 155.023 28.7504 155.343 28.7504C155.633 28.7504 155.9 28.8116 156.144 28.9339C156.388 29.041 156.609 29.1633 156.808 29.301C157.021 29.4386 157.22 29.5686 157.403 29.691C157.586 29.798 157.776 29.8516 157.975 29.8516C158.234 29.8516 158.447 29.7522 158.615 29.5533C158.783 29.3545 158.936 29.1022 159.073 28.7963L160.4 29.7598C160.278 30.0045 160.133 30.2492 159.965 30.4939C159.797 30.7386 159.599 30.9528 159.37 31.1363C159.157 31.3198 158.913 31.4728 158.638 31.5951C158.379 31.7175 158.089 31.7786 157.769 31.7786C157.464 31.7786 157.189 31.7251 156.945 31.618C156.716 31.4957 156.495 31.3657 156.281 31.228C156.083 31.0904 155.892 30.968 155.709 30.861C155.526 30.7539 155.343 30.7004 155.16 30.7004C154.886 30.7004 154.664 30.7998 154.497 30.9986C154.329 31.1822 154.176 31.4269 154.039 31.7328L152.712 30.7692ZM167.008 33.8892V41.1616C167.008 41.9569 167.138 42.5075 167.397 42.8133C167.672 43.1039 168.038 43.2492 168.496 43.2492C168.907 43.2492 169.335 43.1575 169.777 42.9739C170.219 42.7751 170.677 42.4922 171.15 42.1251V33.8892H173.896V45.2451H171.653L171.47 44.0751C171.165 44.2892 170.86 44.4804 170.555 44.6486C170.25 44.8169 169.937 44.9622 169.617 45.0845C169.296 45.2069 168.968 45.2986 168.633 45.3598C168.313 45.4363 167.969 45.4745 167.603 45.4745C166.505 45.4745 165.674 45.1839 165.109 44.6028C164.545 44.0063 164.263 43.0504 164.263 41.7351V33.8892H167.008ZM181.9 35.3345C182.54 34.7686 183.15 34.3328 183.73 34.0269C184.31 33.721 184.905 33.568 185.515 33.568C185.896 33.568 186.239 33.6063 186.545 33.6828C186.85 33.7439 187.147 33.851 187.437 34.0039L187.002 36.4816C186.743 36.3286 186.461 36.2063 186.156 36.1145C185.85 36.0228 185.515 35.9769 185.149 35.9769C184.905 35.9769 184.668 36.0075 184.439 36.0686C184.226 36.1298 183.997 36.2216 183.753 36.3439C183.524 36.451 183.28 36.5963 183.021 36.7798C182.777 36.948 182.495 37.1392 182.174 37.3533V43.2033H185.561V45.2451H176.591V43.2033H179.428V35.9539H176.728V33.8892H181.717L181.9 35.3345ZM189.309 43.2033H193.565V35.9539H189.446V33.8892H196.31V43.2033H199.422V45.2451H189.309V43.2033ZM196.654 30.2186C196.654 30.5245 196.623 30.7769 196.562 30.9757C196.516 31.1745 196.425 31.3351 196.288 31.4575C196.165 31.5798 195.99 31.6639 195.761 31.7098C195.548 31.7557 195.265 31.7786 194.915 31.7786C194.579 31.7786 194.297 31.7557 194.068 31.7098C193.839 31.6639 193.656 31.5798 193.519 31.4575C193.382 31.3351 193.29 31.1745 193.244 30.9757C193.199 30.7769 193.176 30.5245 193.176 30.2186C193.176 29.928 193.199 29.6833 193.244 29.4845C193.29 29.2704 193.382 29.1098 193.519 29.0028C193.656 28.8804 193.839 28.7886 194.068 28.7275C194.297 28.6663 194.579 28.6357 194.915 28.6357C195.265 28.6357 195.548 28.6663 195.761 28.7275C195.99 28.7886 196.165 28.8804 196.288 29.0028C196.425 29.1098 196.516 29.2704 196.562 29.4845C196.623 29.6833 196.654 29.928 196.654 30.2186Z" fill="#F3F3F3"/>
<path d="M22.1434 58.2298C21.8688 58.291 21.5485 58.3216 21.1824 58.3216C20.8163 58.3522 20.3892 58.3675 19.901 58.3675C16.6671 58.3675 14.2875 57.7098 12.7621 56.3945C11.2366 55.0792 10.4739 52.9839 10.4739 50.1086V45.3369C10.4739 44.4804 10.3519 43.7157 10.1078 43.0427C9.86376 42.3392 9.45189 41.7428 8.87223 41.2533C8.32308 40.7333 7.59087 40.3051 6.67562 39.9686C5.76039 39.6016 4.64683 39.3416 3.33496 39.1886V35.1051C4.64683 34.9216 5.76039 34.6616 6.67562 34.3251C7.59087 33.958 8.32308 33.5298 8.87223 33.0404C9.45189 32.5204 9.86376 31.9239 10.1078 31.251C10.3519 30.578 10.4739 29.8439 10.4739 29.0486V24.3686C10.4739 21.5545 11.2214 19.5357 12.7163 18.3122C14.2112 17.0886 16.6061 16.4769 19.901 16.4769C20.3892 16.4769 20.8163 16.4922 21.1824 16.5227C21.5485 16.5227 21.8688 16.538 22.1434 16.5686V20.2851C20.801 20.2851 19.6875 20.3616 18.8027 20.5145C17.9485 20.6675 17.2621 20.9275 16.7434 21.2945C16.2553 21.631 15.9044 22.0898 15.6909 22.671C15.5078 23.2216 15.4163 23.9251 15.4163 24.7816V29.4157C15.4163 30.4557 15.3095 31.3733 15.096 32.1686C14.9129 32.9639 14.5773 33.6675 14.0892 34.2792C13.601 34.8604 12.9909 35.3804 12.2587 35.8392C11.5265 36.2675 10.6112 36.6651 9.51291 37.0322C10.6112 37.3686 11.5265 37.7663 12.2587 38.2251C12.9909 38.6839 13.601 39.2345 14.0892 39.8769C14.5773 40.5192 14.9129 41.2839 15.096 42.171C15.3095 43.058 15.4163 44.0828 15.4163 45.2451V50.0169C15.4163 50.8428 15.5231 51.5463 15.7366 52.1275C15.9502 52.7392 16.301 53.2133 16.7892 53.5498C17.3078 53.9169 17.9943 54.1769 18.8485 54.3298C19.7332 54.4827 20.8316 54.5592 22.1434 54.5592V58.2298Z" fill="#F3F3F3"/>
</svg>
