<?xml version="1.0" encoding="UTF-8"?>
<svg xmlns="http://www.w3.org/2000/svg" width="134" height="24" fill="none">
  <path d="M6.985 0c-3.34 0-6 3.179-6 12 0 7.588 1.492 12 6 12 4.93 0 5.514-4.865 5.514-8.886l-3.568-.163c-.065 3.341-.389 5.48-1.784 5.48-1.297 0-1.75-.842-1.75-8.43 0-7.85.874-8.434 1.75-8.434 1.038 0 1.524 1.428 1.524 5.256l3.762-.13C12.433 4.477 11.849 0 6.985 0zm11.99 0c-3.728 0-6.16 2.887-6.16 12s2.432 12 6.16 12c3.73 0 6.162-2.887 6.162-12 0-1.26-.048-2.397-.138-3.429 1.452 4.843 7.332 6.013 7.332 9.623 0 .94-.486 2.237-1.882 2.237-1.816 0-1.816-2.269-1.816-3.567h-3.762c0 3.18.91 7.136 5.417 7.136 2.478 0 4.195-1.205 5.088-3.026v2.572h3.114V6.616h.064l2.822 16.93h2.334l2.855-16.93h.065v16.93h3.762V12.443C50.47 21.203 52.882 24 56.55 24c3.36 0 5.667-2.346 6.09-9.474v9.02h4.216v-9.243h1.688c3.084 0 4.75-1.695 5.334-4.41-.034.703-.05 1.405-.05 2.108 0 9.112 2.432 11.999 6.16 11.999 3.731 0 6.164-2.887 6.164-12S83.719 0 79.989 0c-2.974 0-5.121 1.84-5.87 7.205-.053-4.875-2.545-6.75-7.263-6.75h-4.215v9.02C62.217 2.346 59.91 0 56.55 0c-3.668 0-6.08 2.797-6.16 11.558V.455h-5.48l-1.979 11.837h-.064L40.986.455h-5.61v5.111C34.984 2.221 33.453 0 30.126 0c-3.53 0-5.408 2.763-5.447 6.181-.87-4.578-2.927-6.18-5.703-6.18zm67.267.455v23.09h9.6v-3.567h-5.384V.455h-4.216zm10.276 0v23.09h4.215V.456h-4.215zm4.924 0v3.568h3.633v19.523h4.216V4.023h3.585l-2.741 19.523h3.535l.583-5.124h3.407l.614 5.124h7.393V9.567h.065l4.508 13.979h3.275V.456h-3.372v12.192h-.065L126.219.455H122.1v21.236L119.474.455h-6.097l-.454 3.237V.455h-11.481zM18.976 3.567c.973 0 1.556 1.006 1.556 6v4.866c0 4.994-.583 5.998-1.556 5.998-.974 0-1.557-1.004-1.557-5.998V9.567c0-4.994.583-6 1.556-6zm11.051 0c1.687 0 1.687 2.174 1.687 3.471h3.662v7.325c-1.902-4.027-6.937-5.504-6.937-8.687 0-1.265.584-2.109 1.588-2.109zm26.523 0c.972 0 1.556 1.006 1.556 6v4.866c0 4.994-.584 5.998-1.556 5.998-.973 0-1.557-1.004-1.557-5.998V9.567c0-4.994.584-6 1.557-6zm23.44 0c.974 0 1.556 1.006 1.556 6v4.866c0 4.994-.582 5.998-1.557 5.998-.972 0-1.556-1.004-1.556-5.998V9.567c0-4.994.584-6 1.556-6zm-13.1.456h.323c1.395 0 2.693.096 2.693 3.437 0 2.789-.941 3.47-2.66 3.47h-.355V4.024zm49.113 0h.066l1.232 11.026h-2.625l1.327-11.026z" fill="#fff" fill-opacity=".32"></path>
</svg>
