<?xml version="1.0" encoding="UTF-8"?>
<svg xmlns="http://www.w3.org/2000/svg" width="136" height="30" fill="none">
  <path d="M40.888 12.61h-6.984a.417.417 0 00-.419.42v15.724c0 .23.187.416.419.416h7.007c5.506 0 9.065-3.254 9.065-8.292-.001-5.024-3.568-8.268-9.088-8.268zm0 12.194h-2.386V16.98h2.409c2.487 0 3.973 1.456 3.973 3.898 0 1.95-1.372 3.926-3.996 3.926zm40.051-7.924c-1.927 0-3.495 1.06-4.194 2.112-.514-1.401-1.677-2.111-3.452-2.111-1.965 0-3.454.994-3.973 1.662v-.946a.417.417 0 00-.417-.417h-3.635a.415.415 0 00-.415.417v11.157c0 .229.185.416.416.416h3.634c.23 0 .417-.188.417-.416v-6.983l.001-.003c.263-.303.81-.94 1.812-.94.88 0 1.367.478 1.367 1.341v6.585c0 .229.187.416.416.416h3.635c.23 0 .418-.188.418-.416v-6.983c.262-.306.809-.943 1.835-.943.87 0 1.367.49 1.367 1.341v6.585c0 .229.186.416.417.416h3.635c.23 0 .418-.188.418-.416v-8.272c0-2.323-1.314-3.601-3.702-3.601zm9.574.3H86.88a.418.418 0 00-.418.416v11.157c0 .23.188.416.418.416h3.634c.23 0 .418-.187.418-.416V17.597a.418.418 0 00-.418-.418zm-1.707-5.886a2.512 2.512 0 00-2.508 2.508 2.51 2.51 0 002.508 2.507 2.51 2.51 0 002.509-2.507 2.512 2.512 0 00-2.51-2.508zm12.609 5.586c-2.317 0-3.577 1.043-4.12 1.663v-.946a.417.417 0 00-.417-.417h-3.635a.417.417 0 00-.418.417v11.157c0 .229.189.416.418.416h3.635c.23 0 .418-.188.418-.416v-6.983c.289-.328.83-.943 1.91-.943 1.154 0 1.739.577 1.739 1.71v6.216c0 .229.187.416.418.416h3.633a.417.417 0 00.417-.416v-8.098c0-2.364-1.493-3.775-3.998-3.775zm-44.235-.055a6.33 6.33 0 100 12.662 6.33 6.33 0 000-12.662zm0 8.402a2.16 2.16 0 01-2.158-2.164c0-1.192.965-2.156 2.158-2.156a2.16 2.16 0 110 4.32zm55.887-8.382a6.33 6.33 0 00-6.328 6.328 6.332 6.332 0 0012.662 0 6.332 6.332 0 00-6.334-6.328zm0 8.4a2.161 2.161 0 010-4.32 2.161 2.161 0 110 4.32zm9.826-11.937l-.001-.008-.002-.008-.007-.025h-.001c-.28-1.248-1.637-2.15-2.976-1.873-1.351.28-2.238 1.537-1.976 2.804.216 1.045 1.147 1.772 2.225 1.838-.069.428-.446.81-.761.987-.21.118-.084.345-.084.345l.278.411c.08.14.202.211.346.151 2.768-1.135 3.244-3.493 2.959-4.622zm3.222 7.439c-.012-.448.569-.646 1.297-.646 1.446 0 2.27.413 3.192 1.02a.408.408 0 00.326.06.41.41 0 00.265-.201l1.227-2.134a.416.416 0 00-.148-.563c-1.009-.602-2.485-1.379-5.05-1.379-3.698 0-5.678 1.741-5.347 4.244.582 4.398 7.421 2.89 7.314 4.391-.024.347-.629.606-1.676.606-1.354 0-2.892-.678-3.863-1.279a.406.406 0 00-.321-.048.408.408 0 00-.259.198l-1.419 2.363a.42.42 0 00.13.554c1.36.918 3.558 1.535 5.466 1.535 3.702 0 5.836-1.59 5.837-4.203.002-4.823-6.941-3.328-6.971-4.518zM29.09 9.267l-8.154-8.154a1.006 1.006 0 00-1.423 0L10.696 9.93l9.577 9.578 8.817-8.817a1.007 1.007 0 000-1.424zm-7.171 2.357a2.359 2.359 0 01-1.67.692c-.605 0-1.209-.23-1.671-.692a2.357 2.357 0 010-3.34 2.358 2.358 0 013.34 0 2.357 2.357 0 010 3.34zM1.291 19.33a1.007 1.007 0 000 1.424l8.155 8.155a1.005 1.005 0 001.424 0l8.812-8.812-9.579-9.58-8.812 8.813zm7.062 2.35a2.37 2.37 0 01-3.342 0 2.353 2.353 0 01-.69-1.67 2.361 2.361 0 114.723-.002c0 .605-.23 1.212-.69 1.672zm3.591-3.246a2.352 2.352 0 011.67-.692c.604 0 1.21.23 1.67.692.463.461.694 1.064.694 1.671a2.34 2.34 0 01-.694 1.668 2.363 2.363 0 01-4.032-1.668c0-.605.23-1.21.692-1.671zm123.899-.839c0 .232-.058.449-.173.65a1.27 1.27 0 01-.471.475 1.267 1.267 0 01-.644.173 1.277 1.277 0 01-1.114-.648 1.279 1.279 0 01-.173-.65c0-.232.057-.448.173-.65.115-.202.273-.361.471-.476.199-.116.414-.174.643-.174.23 0 .445.058.644.174.199.115.356.274.471.476.115.2.173.418.173.65zm-.25 0c0-.29-.101-.538-.305-.743a.994.994 0 00-.733-.307.999.999 0 00-.736.307 1.02 1.02 0 00-.305.742c0 .29.103.537.305.742a.998.998 0 00.736.307.993.993 0 00.733-.306c.204-.206.305-.453.305-.742zm-1.622-.696h.615c.175 0 .301.036.379.106a.37.37 0 01.117.286c0 .093-.03.174-.09.242a.519.519 0 01-.28.148c.052.02.09.042.115.064.036.032.072.08.11.142l.223.401h-.406c-.131-.264-.219-.422-.264-.474-.045-.051-.09-.078-.135-.078a.268.268 0 00-.042.005v.547h-.342v-1.39zm.343.59h.147c.1 0 .169-.017.21-.049a.153.153 0 00.061-.125.156.156 0 00-.058-.125c-.039-.033-.106-.049-.199-.049h-.161v.348zM16.824 27.844c0 .233-.058.45-.173.65a1.277 1.277 0 01-1.116.648 1.278 1.278 0 01-1.114-.648 1.281 1.281 0 01-.172-.65 1.293 1.293 0 011.286-1.299c.23 0 .446.058.645.174.198.115.356.274.471.476.115.201.173.418.173.65zm-.25 0c0-.29-.101-.537-.304-.742a.995.995 0 00-.735-.307.994.994 0 00-.734.307 1.013 1.013 0 00-.304.742c0 .29.1.536.304.742a.995.995 0 00.734.308.996.996 0 00.735-.308c.203-.206.304-.452.304-.742zm-1.623-.695h.616c.175 0 .301.037.379.107.078.07.117.166.117.285 0 .093-.03.174-.09.242a.532.532 0 01-.28.148.37.37 0 01.116.065.67.67 0 01.11.14c.002.006.076.139.222.403h-.405c-.131-.265-.22-.423-.264-.474-.045-.052-.09-.078-.135-.078a.214.214 0 00-.043.005v.547h-.342v-1.39zm.343.59h.148c.1 0 .169-.016.21-.049a.154.154 0 00.06-.125.156.156 0 00-.057-.126c-.039-.032-.105-.048-.199-.048h-.162v.348z" fill="#fff" fill-opacity=".32"></path>
</svg>
