<?xml version="1.0" encoding="UTF-8"?>
<svg xmlns="http://www.w3.org/2000/svg" width="123" height="20" fill="none">
  <path d="M19.977 10.116c0 2.136-.562 3.98-1.668 5.553a9.868 9.868 0 01-8.15 4.233c-2.851 0-5.219-1.029-7.081-3.068C1.273 14.951.36 12.601.36 9.747a9.455 9.455 0 012.91-6.893 9.53 9.53 0 016.966-2.855c4.094 0 7.645 2.525 9.178 6.622h-5.317c-1.183-1.243-2.425-1.884-3.88-1.884a5.043 5.043 0 00-5.006 5.01c0 3.068 2.348 5.34 5.006 5.34 1.804 0 3.337-.893 4.307-2.563h-5.51V8.679h10.924c-.02.602.038 1.107.038 1.437zm1.183 9.534V.506h6.325c2.018 0 3.55.136 4.87 1.029 1.669 1.184 2.561 2.99 2.561 5.34 0 3.068-1.59 5.437-4.307 6.194l4.657 6.544h-5.763l-3.686-6.175v6.194H21.16v.02zm5.55-10.29c2.308 0 3.472-.642 3.472-2.311 0-1.593-.97-2.233-3.065-2.233h-1.32V9.34l.912.02zm11.837-6.408c1.882-1.884 4.23-2.777 6.966-2.777a9.408 9.408 0 016.83 2.854A9.619 9.619 0 0155.33 10c0 2.719-.97 5.223-2.774 7.01A9.63 9.63 0 0145.55 20c-2.852 0-5.219-1.029-7.082-2.99-1.804-1.884-2.716-4.233-2.716-7.088-.116-2.66.912-5.087 2.794-6.97zm6.966 12.31c2.716 0 5.005-2.233 5.005-5.34a5.021 5.021 0 00-5.015-5.019 5.014 5.014 0 00-5.016 5.02c-.058 3.067 2.367 5.34 5.026 5.34zM61.226.505v11.748c0 2.135.68 3.281 2.232 3.281 1.668 0 2.425-1.03 2.425-3.282V.505h4.657v11.961c0 4.66-2.853 7.437-7.082 7.437-4.308 0-6.966-2.64-6.966-7.437V.505h4.734zm10.71 19.145V.506h6.326c2.017 0 3.55.136 4.87 1.029 1.668 1.184 2.56 2.99 2.56 5.34 0 2.524-1.105 4.524-3.065 5.728-1.183.68-2.716.854-4.734.854h-1.32v6.195h-4.637zm5.55-10.29c2.308 0 3.472-.642 3.472-2.311 0-1.593-.97-2.233-3.065-2.233h-1.242V9.34l.835.02zm11.759-6.408c1.882-1.884 4.23-2.777 6.966-2.777a9.407 9.407 0 016.829 2.854A9.612 9.612 0 01106.028 10c0 2.719-.97 5.223-2.774 7.01A9.632 9.632 0 0196.249 20c-2.852 0-5.219-1.029-7.081-2.99-1.805-1.884-2.717-4.233-2.717-7.088-.116-2.66.912-5.087 2.794-6.97zm6.946 12.31c2.717 0 5.006-2.233 5.006-5.34a5.02 5.02 0 00-5.015-5.019 5.014 5.014 0 00-5.016 5.02c-.058 3.067 2.387 5.34 5.025 5.34zm10.73 4.388V.506h4.23l7.004 10.64V.506h4.657V19.65h-4.094l-7.082-10.64v10.64h-4.715z" fill="#fff" fill-opacity=".32"></path>
</svg>
