<?xml version="1.0" encoding="UTF-8"?>
<svg xmlns="http://www.w3.org/2000/svg" width="109" height="40" fill="none">
  <path fill-rule="evenodd" clip-rule="evenodd" d="M19.016 31.382c-.136 1.043-1.587 1.95-3.038 1.95-2.63 0-4.308-2.132-4.308-4.717 0-4.353 2.63-7.664 2.63-9.705 0-.544-.136-.861-.408-1.496l1.678-2.721C23.415 10.929 27.087 0 31.078 0c1.45 0 2.267.861 2.267 2.494 0 1.814-1.18 3.583-3.9 6.123-2.857 2.675-6.303 5.487-11.292 8.117l.09.136c.454.861.68 1.36.68 2.358 0 2.72-1.859 7.3-1.859 9.977 0 1.18.681 2.177 1.951 2.177zm1.121-25.704c0-.59-.408-.907-.861-.907-1.724 0-3.13 1.814-9.66 5.215-5.85 3.04-8.027 4.626-8.027 6.893 0 1.27.771 2.223 1.95 2.223 3.492 0 6.258-6.894 8.571-6.894.182 0 .272.091.272.272 0 1.678-5.17 6.984-5.941 7.665C1.907 24.317.727 25.45.727 27.718c0 1.405.998 2.403 2.358 2.403 2.948 0 4.671-2.584 9.433-11.292C19.14 6.721 20.137 7.22 20.137 5.678zm76.393 8.023c0 .726-.862 1.316-.862 1.814 0 .273.318.454.68.454 2.223 0 4.309-3.265 4.309-4.988 0-1.406-1.224-2.539-2.63-2.539-1.587 0-2.902 1.36-2.902 2.857 0 1.586 1.405 1.45 1.405 2.402zM49.44 24.68c.091.18.091.317.091.543 0 2.54-2.313 4.49-4.127 4.49-2.131 0-3.129-1.36-3.492-3.402l-.18.136c-3.357 2.132-4.581 2.903-6.894 2.903-1.723 0-2.902-1.134-3.582-2.766l-.137.09c-2.811 1.905-4.126 2.676-6.575 2.676-1.814 0-2.54-.59-3.492-1.814l-.136.045a4.787 4.787 0 01-1.723.318c-.908 0-1.542-.544-1.542-1.224 0-.681 0-.681 2.72-1.95v-.273c0-4.036 3.946-9.613 7.846-9.613 1.406 0 2.313.952 2.313 2.358 0 3.083-2.222 5.986-5.578 8.162.226.318.453.408.861.408 1.361 0 3.492-1.27 5.08-2.494l.045-.18c.59-3.946 2.041-7.846 4.898-11.656 2.902-3.855 6.394-6.394 8.662-6.394 1.315 0 2.085.907 2.085 1.95 0 4.263-6.62 11.882-11.291 16.19l.045.227c.181.77.725 1.224 1.497 1.224 1.632 0 3.083-.816 5.078-2.313l.046-.18c.77-4.127 2.358-7.936 5.668-12.336 3.265-4.353 7.075-7.392 9.16-7.392 1.271 0 1.905.817 1.905 1.86 0 3.763-6.077 13.287-12.788 18.82v.18a2.065 2.065 0 002.04 1.905c.5 0 .817-.09 1.497-.498zm-3.012-6.123c3.809-3.673 7.346-8.707 7.346-10.158 0-.272-.136-.454-.317-.454-1.724 0-5.669 6.485-6.984 10.476l-.045.136zm-19.04.054c0-.227-.09-.363-.408-.363-1.27 0-2.72 2.766-2.811 4.399v.227c1.133-.681 3.22-2.858 3.22-4.263zm7.83.901c4.08-3.764 6.892-8.707 6.892-9.342 0-.272-.18-.454-.362-.454-.771 0-2.54 1.996-4.036 4.173-1.36 2.04-2.086 3.582-2.45 5.396l-.045.227zm72.888-3.501c0 2.54-3.221 0-3.221 3.945 0 .59.046 1.36.046 1.95 0 3.945-3.401 8.571-7.438 8.571-2.312 0-3.9-1.27-3.9-3.356 0-.363.091-.862.364-1.678l-.137.09c-1.541 1.089-4.49 3.22-6.484 4.082-.363.544-1.316 2.267-2.086 3.401-.771 1.134-1.588 2.177-2.45 3.084-2.177 2.313-4.806 3.9-6.71 3.9-1.316 0-2.495-1.134-2.495-2.63 0-1.769 1.36-4.127 4.081-5.987 1.814-1.27 3.265-1.542 6.756-3.265l.953-1.541-.136.09c-2.132 1.406-2.494 1.632-3.628 1.632-1.858 0-3.084-1.178-3.084-2.947 0-4.716 6.531-10.068 11.338-10.068.771 0 1.496.227 1.496.952 0 1.361-7.755 3.175-7.755 6.712 0 .453.319.862.998.862 3.083 0 4.307-6.395 7.03-6.395.86 0 1.405.59 1.405 1.225 0 1.043-.772 2.54-3.13 6.258l.09-.046c6.85-4.262 11.748-10.792 16.191-10.792 1.225.002 1.906.682 1.906 1.952zM82.427 31.785c-2.221 1.133-4.988 2.585-4.988 4.035 0 .273.227.454.454.454.59 0 3.129-1.904 4.444-4.353l.09-.136zm19.14-12.46l-5.488 4.58c.318-.046.59-.09.772-.09 1.678 0 .771 1.904 1.904 1.904 1.587 0 2.676-3.13 2.811-6.168v-.226h.001zm-23.713 6.158c0 2.131-3.537 4.626-5.895 5.578-2.903 3.945-6.576 8.843-10.975 8.843-1.36 0-2.539-1.043-2.539-2.495 0-4.535 5.758-6.666 11.155-8.616l1.316-2.131-.136.09c-1.315.862-3.038 1.497-4.082 1.497-1.767 0-2.856-1.135-2.856-2.948 0-1.95 1.088-3.311 3.672-5.805h-.135c-2.087 0-2.857-.363-3.537-.363-1.044 0 0 2.404-3.04 6.803-1.948 2.857-3.99 3.99-6.212 3.99-2.675 0-4.081-1.768-4.081-4.217 0-4.49 4.49-9.932 8.843-9.932.817 0 1.45.454 1.45 1.134 0 .771-5.26 3.31-5.26 6.757 0 .726.5 1.27 1.316 1.27 3.719 0 2.903-8.616 5.85-8.616 1.179 0 2.675.907 4.626.907 2.856 0 5.396-1.723 6.938-1.723.952 0 1.451.318 1.451.998 0 1.406-6.711 3.537-6.711 7.12 0 .453.317.77.951.77 3.492 0 4.264-8.434 8.345-8.434.634 0 1.27.498 1.27 1.451 0 .952-.544 2.267-2.267 4.988-1.543 2.494-1.86 2.675-2.994 4.671 1.36-.453 2.586-2.177 3.174-2.177.227 0 .362.272.362.59zm-10.519 6.843c-1.587.5-4.897 2.223-4.897 3.492 0 .273.227.499.545.499.816 0 2.63-1.542 4.263-3.854l.09-.137zm39.218-4.335c0 .635-.589 1.088-1.135 1.088-.588 0-1.133-.453-1.133-1.088 0-.634.545-1.088 1.133-1.088.592 0 1.135.453 1.135 1.088zm-.192 0c0-.5-.452-.908-.951-.908-.544 0-.953.408-.953.907 0 .499.409.907.953.907.453 0 .951-.363.951-.907zm-.41.533v.025h-.189a1.413 1.413 0 01-.027-.285c0-.094-.019-.203-.203-.203h-.372v.488h-.154v-1.138h.526c.187 0 .374.065.374.306 0 .168-.085.23-.158.273.065.027.13.056.135.214l.011.206c.001.063.009.087.057.114zm-.203-.791c0-.177-.129-.19-.205-.19h-.383v.386h.356c.113 0 .232-.028.232-.196z" fill="#fff" fill-opacity=".32"></path>
</svg>
