<?xml version="1.0" encoding="UTF-8"?>
<svg xmlns="http://www.w3.org/2000/svg" width="160" height="28" fill="none">
  <path d="M44.028 22.676v-.451h.183v-.093h-.463v.093h.183v.451h.1-.003zm.898 0v-.544h-.14l-.163.373-.163-.373h-.14v.544h.1v-.408l.152.354h.105l.152-.354v.412h.101l-.004-.004zm24.523-3.959v-5.845c0-2.2-1.403-3.683-3.663-3.702-1.19-.02-2.415.35-3.27 1.657-.642-1.03-1.657-1.657-3.076-1.657-.992 0-1.968.292-2.727 1.384v-1.15h-2.026v9.31h2.046v-5.161c0-1.618.894-2.474 2.279-2.474 1.384 0 2.026.875 2.026 2.454v5.18h2.045v-5.16c0-1.618.934-2.474 2.28-2.474 1.345 0 2.045.875 2.045 2.454v5.18h2.045l-.004.004zm30.268-9.31h-3.31V6.584h-2.045v2.823h-1.89v1.851h1.89v4.247c0 2.162.836 3.45 3.232 3.45.875 0 1.89-.273 2.531-.72l-.583-1.734c-.603.35-1.268.525-1.793.525-1.011 0-1.346-.623-1.346-1.56v-4.208h3.31v-1.85h.004zm17.278-.233c-1.166 0-1.929.544-2.454 1.365V9.41h-2.006v9.31h2.026v-5.219c0-1.54.661-2.395 1.987-2.395.408 0 .836.058 1.268.233l.622-1.91c-.447-.174-1.031-.252-1.443-.252v-.004zm-26.121.972c-.973-.642-2.318-.972-3.8-.972-2.357 0-3.877 1.132-3.877 2.979 0 1.52 1.128 2.454 3.212 2.745l.953.136c1.108.156 1.637.448 1.637.973 0 .72-.739 1.127-2.123 1.127-1.385 0-2.415-.447-3.096-.972l-.953 1.58c1.109.816 2.513 1.209 4.033 1.209 2.687 0 4.247-1.268 4.247-3.038 0-1.637-1.23-2.492-3.251-2.784l-.953-.136c-.875-.117-1.579-.292-1.579-.914 0-.68.661-1.093 1.773-1.093 1.19 0 2.338.447 2.902.797l.875-1.637zm54.265-.972c-1.17 0-1.929.544-2.454 1.365V9.41h-2.006v9.31h2.026v-5.219c0-1.54.661-2.395 1.987-2.395.408 0 .836.058 1.268.233l.622-1.91c-.447-.174-1.031-.252-1.443-.252v-.004zm-26.102 4.888c0 2.824 1.968 4.889 4.966 4.889 1.404 0 2.337-.312 3.348-1.113l-.972-1.637c-.758.545-1.559.836-2.434.836-1.618-.02-2.804-1.19-2.804-2.979 0-1.789 1.19-2.96 2.804-2.979.875 0 1.676.292 2.434.837l.972-1.638c-1.011-.797-1.948-1.112-3.348-1.112-2.998 0-4.966 2.065-4.966 4.888v.008zm18.97 0V9.407h-2.026v1.128c-.642-.836-1.618-1.365-2.94-1.365-2.61 0-4.655 2.046-4.655 4.888 0 2.843 2.045 4.889 4.655 4.889 1.326 0 2.298-.525 2.94-1.365v1.127h2.026v-4.655.008zm-7.537 0c0-1.637 1.07-2.979 2.824-2.979 1.753 0 2.803 1.288 2.803 2.98 0 1.69-1.127 2.978-2.803 2.978-1.677 0-2.824-1.345-2.824-2.979zm-24.445-4.888c-2.726 0-4.636 1.987-4.636 4.888s1.987 4.889 4.772 4.889c1.404 0 2.687-.35 3.819-1.307l-.992-1.501c-.778.622-1.773.972-2.707.972-1.306 0-2.492-.603-2.784-2.279h6.914a9.65 9.65 0 00.039-.778c-.019-2.9-1.812-4.888-4.421-4.888l-.004.004zm-.039 1.812c1.306 0 2.143.817 2.356 2.26h-4.83c.214-1.346 1.031-2.26 2.474-2.26zm50.82 3.076V5.666h-2.026v4.869c-.642-.836-1.618-1.365-2.94-1.365-2.61 0-4.655 2.046-4.655 4.888 0 2.843 2.045 4.889 4.655 4.889 1.326 0 2.298-.525 2.94-1.365v1.127h2.026v-4.655.008zm2.368 3.796a.598.598 0 01.599.59.561.561 0 01-.047.23.602.602 0 01-.789.315.595.595 0 01-.319-.774.595.595 0 01.556-.362zm0 1.05a.459.459 0 00.323-.132.418.418 0 00.097-.148.447.447 0 00.035-.18.456.456 0 00-.276-.424.483.483 0 00-.362 0 .457.457 0 00-.245.246.465.465 0 00.245.603.483.483 0 00.183.035zm.035-.74c.07 0 .125.016.164.048a.157.157 0 01.058.128.15.15 0 01-.047.113.217.217 0 01-.128.054l.179.206h-.14l-.167-.206h-.055v.206h-.117v-.548h.253zm-.136.102v.148h.136a.138.138 0 00.074-.02c.02-.011.027-.03.027-.054 0-.023-.007-.043-.027-.055a.138.138 0 00-.074-.019h-.136zm-9.804-4.212c0-1.637 1.07-2.979 2.824-2.979 1.753 0 2.803 1.288 2.803 2.98 0 1.691-1.127 2.978-2.803 2.978-1.677 0-2.824-1.345-2.824-2.979zm-68.406 0V9.403h-2.026v1.128c-.641-.836-1.617-1.365-2.94-1.365-2.61 0-4.655 2.046-4.655 4.888 0 2.843 2.046 4.889 4.655 4.889 1.326 0 2.299-.525 2.94-1.365v1.128h2.026V14.05v.007zm-7.536 0c0-1.637 1.07-2.979 2.823-2.979 1.754 0 2.804 1.288 2.804 2.98 0 1.691-1.128 2.978-2.804 2.978s-2.823-1.345-2.823-2.979zm-51.855 11.32c.11.094.226.188.338.28A13.941 13.941 0 0114.06 28c-7.731 0-14-6.269-14-14s6.265-14 14-14c2.866 0 5.53.863 7.75 2.341-.112.093-.229.183-.338.28A15.089 15.089 0 0016.28 14c0 4.36 1.89 8.509 5.192 11.379zM31.362 0c-2.866 0-5.53.863-7.75 2.341.112.093.229.183.337.28A15.083 15.083 0 0129.141 14a15.08 15.08 0 01-5.188 11.379c-.109.093-.225.187-.338.28A13.941 13.941 0 0031.365 28c7.732 0 14-6.269 14-14s-6.268-14-14-14h-.003zm-8.653 2.998c-.179.14-.358.288-.529.44A13.96 13.96 0 0017.362 14a13.96 13.96 0 004.818 10.562c.171.152.35.296.529.44.179-.144.358-.288.529-.44A13.96 13.96 0 0028.056 14a13.96 13.96 0 00-4.818-10.562c-.171-.152-.35-.296-.53-.44z" fill="#fff" fill-opacity=".32"></path>
</svg>
