<?xml version="1.0" encoding="UTF-8"?>
<svg xmlns="http://www.w3.org/2000/svg" width="101" height="28" fill="none">
  <path d="M25.85 14.865c.167.897.267 1.829.267 2.76v9.677c0 .133-.1.232-.234.232h-3.166a.228.228 0 01-.234-.232v-9.245c0-.599-.033-1.197-.133-1.796a4.689 4.689 0 00-.467-1.463 2.87 2.87 0 00-1-.998 3.468 3.468 0 00-1.733-.365c-1.433 0-2.467.432-3.067 1.297-.6.864-1 2.061-1 3.491v9.079c0 .133-.1.232-.233.232h-3.167a.228.228 0 01-.233-.232v-8.713c0-.698-.033-1.43-.133-2.128a5.683 5.683 0 00-.467-1.63 2.228 2.228 0 00-.967-1.03 3.468 3.468 0 00-1.733-.366c-.533 0-1.067.1-1.533.299-.5.2-.934.532-1.3.931-.4.466-.7 1.031-.9 1.63-.234.764-.367 1.563-.334 2.36v8.647c0 .133-.1.232-.233.232H.65a.228.228 0 01-.233-.232V10.675c0-.133.1-.233.233-.233h2.967c.133 0 .233.1.233.233v1.795c.067-.066.133-.166.2-.232a5.919 5.919 0 011.167-1.065 6.016 6.016 0 011.666-.831c.7-.233 1.4-.333 2.134-.333a6.263 6.263 0 013.266.799 5.649 5.649 0 011.934 2.028 5.521 5.521 0 012.166-2.028 6.423 6.423 0 013.1-.799 7.284 7.284 0 013.267.666c.8.399 1.5.997 2.033 1.762.534.732.9 1.53 1.067 2.428zm17.333 11.04c.034.465.067.964.1 1.397 0 .133-.066.266-.2.266H40.25a.228.228 0 01-.233-.233c-.067-.632-.067-1.264-.1-1.896a5.793 5.793 0 01-2.234 1.863A8.684 8.684 0 0134.25 28c-.767 0-1.533-.1-2.3-.332-.7-.2-1.367-.533-1.933-.998-.567-.433-1-1.031-1.3-1.663a4.84 4.84 0 01-.467-2.261 4.952 4.952 0 01.767-2.827 6.176 6.176 0 012.066-1.862 9.665 9.665 0 013-.998c1.2-.2 2.4-.299 3.6-.299h2.067v-.466a2.8 2.8 0 00-.233-1.163 3.286 3.286 0 00-.7-1.065 3.482 3.482 0 00-1.134-.731c-.533-.2-1.1-.3-1.666-.266a7.73 7.73 0 00-1.534.166c-.433.1-.833.233-1.233.433a5.827 5.827 0 00-.967.598l-.9.665a.257.257 0 01-.333-.033l-1.9-1.962a.254.254 0 01-.067-.166c0-.067.034-.133.067-.167.933-.831 2-1.496 3.2-1.895 1.167-.4 2.367-.632 3.6-.632 1.1-.033 2.2.133 3.233.466.834.266 1.6.698 2.267 1.263a4.84 4.84 0 011.3 1.863c.267.698.433 1.43.433 2.161v8.447c-.033.598-.033 1.13 0 1.629zm-4.933-6.352c-.767 0-1.533.034-2.267.133-.7.067-1.4.233-2.1.466-.566.2-1.066.499-1.5.931-.366.4-.566.898-.533 1.43 0 .865.267 1.496.867 1.862a4.717 4.717 0 002.5.599c.733.033 1.433-.133 2.1-.4.533-.232 1-.631 1.4-1.063.333-.433.6-.931.766-1.463a5.353 5.353 0 00.234-1.63v-.798l-1.467-.067zm17.6 4.523a.286.286 0 00-.233 0c-.3.166-.634.3-1 .366a6.25 6.25 0 01-1.134.1 2.168 2.168 0 01-1.266-.3 2.01 2.01 0 01-.634-.765c-.133-.365-.233-.764-.233-1.13-.033-.433-.033-.898-.033-1.364v-7.349h4.3c.133 0 .233-.1.233-.233v-2.726c0-.133-.1-.233-.233-.233h-4.3V5.986c0-.133-.1-.233-.234-.233h-3.166c-.134 0-.234.1-.234.233v4.423h-3.4c-.133 0-.233.1-.233.232v2.727c0 .133.1.233.233.233h3.434v8.446c0 .699.033 1.364.1 2.029a5.01 5.01 0 00.6 1.929 3.74 3.74 0 001.566 1.396c.934.4 1.934.599 2.934.532.466 0 .966-.066 1.433-.133a4.829 4.829 0 001.533-.465c.067-.033.134-.133.134-.2v-2.86c-.034-.066-.1-.166-.167-.199zm6.633-8.912c.4-.532.934-.931 1.534-1.23.666-.333 1.4-.466 2.166-.466.767-.033 1.5.133 2.2.432a6.327 6.327 0 011.767 1.33c.1.1.233.1.333 0l2.4-2.161a.254.254 0 00.067-.166.254.254 0 00-.067-.167 8.493 8.493 0 00-3-2.061 10.16 10.16 0 00-3.6-.666 9.19 9.19 0 00-3.666.666 8.061 8.061 0 00-4.667 4.722c-.433 1.164-.667 2.394-.633 3.624 0 1.23.2 2.461.633 3.625a8.592 8.592 0 001.9 2.86 7.99 7.99 0 002.833 1.829c1.167.432 2.4.665 3.634.665 1.2 0 2.4-.233 3.533-.632a7.629 7.629 0 002.967-2.028c.1-.1.1-.233 0-.333l-2.267-2.261c-.1-.1-.233-.1-.333 0a5.591 5.591 0 01-1.7 1.33c-.667.333-1.434.466-2.167.432a5.788 5.788 0 01-2.133-.399 4.612 4.612 0 01-1.6-1.164c-.467-.498-.8-1.097-1.034-1.729a6.446 6.446 0 01-.366-2.095c0-.731.1-1.463.333-2.161.2-.666.533-1.264.933-1.796zm27.4-1.53a5.458 5.458 0 00-1.366-2.062c-.567-.532-1.267-.93-2.034-1.197-.766-.266-1.566-.366-2.4-.366a6.954 6.954 0 00-3.533.865 5.42 5.42 0 00-1.8 1.563V.765c0-.133-.1-.233-.233-.233H75.35c-.133 0-.233.1-.233.233v26.537c0 .133.1.232.233.232h3.167c.133 0 .233-.1.233-.232v-8.547c-.033-.831.1-1.63.333-2.427.2-.599.5-1.164.934-1.63.366-.432.866-.731 1.4-.93a5.12 5.12 0 011.733-.3c.467 0 .9.066 1.333.2.434.133.8.365 1.134.665.366.365.633.798.8 1.263.2.599.3 1.264.3 1.896v9.843c0 .133.1.233.233.233h3.167c.133 0 .233-.1.233-.233V16.594a6.989 6.989 0 00-.467-2.96zm4-1.662a.7.7 0 00.367-.133c1.233-.832 2.4-1.73 3.5-2.694 1.333-1.23 2.667-2.96 2.667-5.288A3.795 3.795 0 0096.683 0c-1.866 0-2.8 1.596-2.8 1.596h-.033S92.917 0 91.05 0a3.794 3.794 0 00-3.733 3.857c0 2.328 1.366 4.057 2.666 5.288 1.1.964 2.3 1.895 3.5 2.694.1.1.267.133.4.133z" fill="#fff" fill-opacity=".32"></path>
</svg>
