<?xml version="1.0" encoding="UTF-8"?>
<svg xmlns="http://www.w3.org/2000/svg" width="124" height="32" fill="none">
  <path d="M108.082 7.475l-2.626 16.462a.411.411 0 00.096.34.42.42 0 00.324.147h3.108a.46.46 0 00.457-.385l2.627-16.462a.412.412 0 00-.011-.18.411.411 0 00-.231-.27.423.423 0 00-.178-.037h-3.109a.453.453 0 00-.457.385zm-3.319 4.804h-2.949a.46.46 0 00-.456.384l-.098.606s-2.29-2.478-6.346-.803c-2.327.958-3.444 2.94-3.92 4.39 0 0-1.507 4.41 1.904 6.838 0 0 3.163 2.334 6.725-.144l-.061.387a.42.42 0 00.242.448.423.423 0 00.178.039h2.951a.453.453 0 00.457-.385l1.795-11.273a.41.41 0 00-.097-.34.423.423 0 00-.325-.147zm-4.34 6.23A3.266 3.266 0 0199.3 20.53a3.326 3.326 0 01-2.19.786 3.018 3.018 0 01-.926-.135c-1.274-.405-2-1.615-1.791-2.928a3.27 3.27 0 011.124-2.02 3.33 3.33 0 012.188-.788c.314-.003.627.043.927.136 1.281.402 2.005 1.615 1.795 2.929h-.004zm-15.748.312a6.742 6.742 0 004.361-1.598 6.623 6.623 0 002.263-4.021c.516-3.261-2.056-6.107-5.703-6.107h-5.874a.458.458 0 00-.456.385l-2.627 16.46a.42.42 0 00.242.448.42.42 0 00.178.04h3.11a.458.458 0 00.457-.385l.77-4.834a.452.452 0 01.458-.386l2.82-.003zm2.601-5.768c-.191 1.206-1.133 2.093-2.934 2.093H82.04l.699-4.384H85c1.862.004 2.468 1.091 2.276 2.295v-.004zm-14.181-.495l-3.558 5.947-1.805-5.903a.453.453 0 00-.44-.323h-3.21a.345.345 0 00-.346.291.335.335 0 00.017.161l3.235 9.943-2.926 4.685a.335.335 0 00.118.475c.053.03.114.047.176.046h3.458a.575.575 0 00.491-.274l9.037-14.803a.335.335 0 00-.12-.474.344.344 0 00-.176-.044H73.59a.575.575 0 00-.495.273zm-10.834-.28H59.31a.46.46 0 00-.456.386l-.096.606s-2.293-2.478-6.348-.804c-2.326.959-3.444 2.94-3.917 4.39 0 0-1.51 4.41 1.9 6.838 0 0 3.165 2.335 6.727-.143l-.062.386a.418.418 0 00.243.448.42.42 0 00.178.04h2.95a.46.46 0 00.457-.385l1.796-11.273a.419.419 0 00-.242-.449.428.428 0 00-.178-.04zm-4.34 6.232a3.27 3.27 0 01-1.123 2.019 3.332 3.332 0 01-2.189.788 3.021 3.021 0 01-.926-.135c-1.272-.405-1.998-1.616-1.79-2.929a3.27 3.27 0 011.128-2.023 3.332 3.332 0 012.196-.785 3.02 3.02 0 01.927.136c1.268.403 1.99 1.615 1.78 2.93h-.003zm-15.748.311a6.742 6.742 0 004.357-1.6 6.62 6.62 0 002.26-4.02c.517-3.26-2.055-6.106-5.7-6.106h-5.876a.459.459 0 00-.456.384l-2.62 16.458a.419.419 0 00.243.448.43.43 0 00.178.04h3.109a.46.46 0 00.456-.386l.77-4.834a.452.452 0 01.457-.384h2.822zm2.602-5.768c-.192 1.206-1.133 2.093-2.934 2.093h-2.302l.697-4.384h2.262c1.862.004 2.468 1.092 2.277 2.295v-.004zM9.042 16.482L7.781 24.46l-.792 5.005a.676.676 0 00.671.783h4.367a.836.836 0 00.825-.704l1.15-7.274a.834.834 0 01.826-.704h2.57a8.209 8.209 0 008.11-6.937c.445-2.833-.984-5.411-3.429-6.69a6.84 6.84 0 01-.079.902 8.21 8.21 0 01-8.11 6.936H9.869a.838.838 0 00-.826.704z" fill="#fff" fill-opacity=".32"></path>
  <path d="M7.781 24.461h-5.08a.68.68 0 01-.67-.784L5.456 2.01a.834.834 0 01.826-.704h8.73c4.133 0 7.139 3 7.069 6.635-1.029-.539-2.237-.846-3.561-.846h-7.28a.837.837 0 00-.826.704l-1.37 8.683-1.264 7.98z" fill="#fff" fill-opacity=".32"></path>
</svg>
